<svg width="161" height="18" viewBox="0 0 161 18" fill="none" xmlns="http://www.w3.org/2000/svg">
<path d="M9.84887 9.66968L3.57463 0.590339H0L1.48327 3.15721V16.6369H4.68708V7.30818L9.87852 14.8621L15.0699 7.30818V16.6956H18.2738V3.21585L19.7571 0.648978H16.1824L9.84887 9.66968ZM40.3745 0.238281C38.673 0.238281 37.0097 0.73723 35.595 1.67203C34.1802 2.60683 33.0775 3.9355 32.4264 5.49001C31.7753 7.04452 31.6049 8.75505 31.9369 10.4053C32.2688 12.0556 33.0882 13.5714 34.2913 14.7612C35.4944 15.951 37.0273 16.7612 38.6962 17.0895C40.365 17.4177 42.0947 17.2493 43.6667 16.6054C45.2387 15.9615 46.5823 14.8711 47.5276 13.472C48.4729 12.073 48.9774 10.4282 48.9774 8.74564C48.9774 6.48936 48.0711 4.32547 46.4577 2.73004C44.8443 1.1346 42.6562 0.238281 40.3745 0.238281ZM40.3745 13.7033C39.3817 13.7033 38.4112 13.4118 37.5861 12.8657C36.761 12.3197 36.1185 11.5436 35.7399 10.636C35.3613 9.7284 35.2638 8.73008 35.4597 7.76758C35.6555 6.80508 36.136 5.92175 36.8401 5.22958C37.5442 4.53742 38.4403 4.0676 39.4147 3.87963C40.3892 3.69166 41.3981 3.79403 42.3137 4.17377C43.2293 4.55351 44.0102 5.19352 44.5575 6.01266C45.1048 6.8318 45.3938 7.79319 45.3879 8.77496C45.3801 10.0847 44.8484 11.3382 43.9091 12.2617C42.9697 13.1851 41.699 13.7034 40.3745 13.7033ZM71.1968 0.238281C69.4966 0.238291 67.8344 0.736507 66.4203 1.67001C65.0062 2.60352 63.9036 3.93045 63.2516 5.48325C62.5996 7.03606 62.4275 8.74511 62.757 10.3946C63.0866 12.044 63.903 13.5599 65.1032 14.7509C66.3034 15.9418 67.8335 16.7543 69.5003 17.0859C71.1672 17.4175 72.896 17.2532 74.4685 16.6137C76.041 15.9743 77.3866 14.8885 78.3355 13.4933C79.2843 12.0982 79.7939 10.4563 79.7997 8.77496C79.8036 7.6553 79.584 6.54588 79.1534 5.51033C78.7228 4.47479 78.0898 3.53347 77.2905 2.74038C76.4913 1.94729 75.5415 1.31805 74.4958 0.888682C73.4502 0.459315 72.329 0.238275 71.1968 0.238281ZM71.1968 13.7033C70.2052 13.7033 69.2359 13.4126 68.4115 12.8678C67.587 12.3231 66.9444 11.5488 66.565 10.6429C66.1855 9.73696 66.0862 8.74012 66.2797 7.77841C66.4731 6.81671 66.9506 5.93332 67.6517 5.23997C68.3529 4.54662 69.2462 4.07446 70.2187 3.88317C71.1912 3.69187 72.1992 3.79007 73.1153 4.16531C74.0314 4.54054 74.8144 5.17597 75.3653 5.99126C75.9162 6.80656 76.2102 7.7651 76.2102 8.74564C76.2102 10.0605 75.682 11.3215 74.7418 12.2513C73.8016 13.181 72.5264 13.7033 71.1968 13.7033ZM126.923 0.590339H123.957V16.6369H134.681V13.41H126.879L126.923 0.590339ZM156.485 0.590339L152.48 6.91217L148.564 0.590339H144.871L151.071 10.1537V16.6369H154.037V10.1537L160.104 0.590339H156.485ZM105.015 11.7085L96.1157 0.560975H92.452L93.9353 2.95184V16.6076H96.9018V6.16409L105.075 16.6076H108.041V0.590339H105.075L105.015 11.7085Z" fill="white"/>
</svg>
