<svg width="742" height="78" viewBox="0 0 742 78" fill="none" xmlns="http://www.w3.org/2000/svg">
<g clip-path="url(#clip0_1_952)">
<path d="M41.5976 43.7384L12.2062 1.58256H-4.53906L2.40924 13.5007V76.0875H17.4174V32.7738L41.7365 67.847L66.0555 32.7738V76.36H81.0639V13.7729L88.0122 1.85482H71.2668L41.5976 43.7384ZM184.594 -0.052063C176.623 -0.052063 168.831 2.26458 162.204 6.60489C155.577 10.9452 150.411 17.1143 147.361 24.332C144.311 31.5497 143.513 39.4917 145.068 47.1539C146.623 54.8162 150.461 61.8544 156.097 67.3786C161.733 72.9027 168.914 76.6648 176.732 78.1889C184.549 79.713 192.652 78.9308 200.016 75.9412C207.38 72.9515 213.674 67.8887 218.102 61.3929C222.53 54.8972 224.894 47.2604 224.894 39.448C224.894 28.972 220.648 18.925 213.09 11.5173C205.532 4.1096 195.282 -0.052063 184.594 -0.052063ZM184.594 62.4668C179.943 62.4667 175.397 61.1132 171.532 58.5778C167.667 56.0424 164.656 52.4392 162.883 48.2251C161.11 44.011 160.653 39.3758 161.57 34.9068C162.488 30.4379 164.738 26.3366 168.037 23.1228C171.335 19.909 175.533 17.7277 180.098 16.8549C184.663 15.9822 189.389 16.4574 193.678 18.2206C197.967 19.9837 201.625 22.9553 204.189 26.7587C206.753 30.562 208.106 35.0257 208.079 39.5842C208.042 45.6655 205.552 51.4856 201.151 55.7731C196.751 60.0605 190.798 62.4669 184.594 62.4668ZM328.98 -0.052063C321.015 -0.0520166 313.229 2.26122 306.604 6.59554C299.98 10.9299 294.815 17.0909 291.76 24.3006C288.706 31.5103 287.9 39.4456 289.444 47.1041C290.988 54.7626 294.812 61.801 300.434 67.3306C306.056 72.8601 313.224 76.6328 321.033 78.1723C328.841 79.7117 336.939 78.9488 344.306 75.98C351.672 73.0113 357.975 67.9697 362.42 61.4919C366.865 55.0141 369.252 47.3907 369.28 39.5842C369.298 34.3855 368.269 29.2344 366.252 24.4263C364.235 19.6182 361.269 15.2476 357.525 11.5653C353.781 7.88294 349.332 4.96135 344.434 2.96778C339.535 0.97421 334.284 -0.0520939 328.98 -0.052063ZM328.98 62.4668C324.335 62.4668 319.794 61.1169 315.932 58.5876C312.07 56.0582 309.06 52.4631 307.282 48.2569C305.504 44.0508 305.039 39.4224 305.945 34.9571C306.852 30.4919 309.088 26.3903 312.373 23.171C315.657 19.9518 319.842 17.7595 324.398 16.8713C328.953 15.9831 333.676 16.4391 337.967 18.1813C342.258 19.9236 345.926 22.8739 348.507 26.6593C351.087 30.4448 352.465 34.8953 352.465 39.448C352.465 45.553 349.99 51.408 345.586 55.7248C341.182 60.0417 335.208 62.4668 328.98 62.4668ZM590.027 1.58256H576.131V76.0875H626.367V61.1049H589.819L590.027 1.58256ZM728.507 1.58256L709.747 30.9351L691.403 1.58256H674.102L703.146 45.9859V76.0875H717.042V45.9859L745.461 1.58256H728.507ZM487.401 53.2048L445.711 1.44622H428.549L435.497 12.5471V75.9514H449.394V27.4618L487.679 75.9514H501.575V1.58256H487.679L487.401 53.2048Z" fill="black"/>
</g>
<defs>
<clipPath id="clip0_1_952">
<rect width="741.277" height="77.9212" fill="white"/>
</clipPath>
</defs>
</svg>
